<svg xmlns="http://www.w3.org/2000/svg" xmlns:xlink="http://www.w3.org/1999/xlink" width="840" height="277.1"><rect width="840" height="277.1" rx="5" ry="5" class="a"/><svg y="0%" x="0%"><circle cx="20" cy="20" r="6" fill="#ff5f58"/><circle cx="40" cy="20" r="6" fill="#ffbd2e"/><circle cx="60" cy="20" r="6" fill="#18c132"/></svg><svg height="217.1" viewBox="0 0 80 21.71" width="800" x="15" xmlns="http://www.w3.org/2000/svg" xmlns:xlink="http://www.w3.org/1999/xlink" y="50"><style>@keyframes n{0%{transform:translateX(0)}19%{transform:translateX(-160px)}25.3%{transform:translateX(-240px)}29.9%{transform:translateX(-320px)}33.8%{transform:translateX(-400px)}36.2%{transform:translateX(-480px)}38.5%{transform:translateX(-560px)}39.9%{transform:translateX(-640px)}43.2%{transform:translateX(-720px)}45%{transform:translateX(-800px)}47.8%{transform:translateX(-880px)}51.8%{transform:translateX(-960px)}54.2%{transform:translateX(-1040px)}58.5%{transform:translateX(-1120px)}62.2%{transform:translateX(-1200px)}68.1%{transform:translateX(-1280px)}75.5%{transform:translateX(-1360px)}79.2%{transform:translateX(-1440px)}79.4%{transform:translateX(-1600px)}80.9%{transform:translateX(-1680px)}81%{transform:translateX(-1760px)}to{transform:translateX(-1840px)}}.a{fill:#000}.f,.g{white-space:pre}.f{fill:#f2f2f2}.g{font-weight:700}.g,.h{fill:#33bbc8}.h,.i,.j,.k{white-space:pre}.i{fill:#adad27;font-weight:700}.j,.k{fill:#25bc24}.k{font-weight:700}</style><g font-family="Monaco,Consolas,Menlo,'Bitstream Vera Sans Mono','Powerline Symbols',monospace" font-size="1.67"><defs><symbol id="1"><text y="1.67" class="f">%</text></symbol><symbol id="2"><text y="1.67" class="f">%</text><text x="2.004" y="1.67" class="f">npx</text></symbol><symbol id="3"><text y="1.67" class="f">%</text><text x="2.004" y="1.67" class="f">npx</text><text x="6.012" y="1.67" class="f">rollup</text></symbol><symbol id="4"><text y="1.67" class="f">%</text><text x="2.004" y="1.67" class="f">npx</text><text x="6.012" y="1.67" class="f">rollup</text><text x="13.026" y="1.67" class="f">-c</text></symbol><symbol id="5"><text y="1.67" class="g">./src/index.ts</text><text x="15.03" y="1.67" class="h">→</text><text x="17.034" y="1.67" class="g">./out,</text><text x="24.048" y="1.67" class="g">./out</text><text x="29.058" y="1.67" class="h">...</text></symbol><symbol id="6"><text y="1.67" class="f">Unused</text><text x="7.014" y="1.67" class="f">files:</text></symbol><symbol id="7"><text y="1.67" class="f">-</text><text x="2.004" y="1.67" class="f">src/lib/JsonConfig.ts</text></symbol><symbol id="8"><text y="1.67" class="f">-</text><text x="2.004" y="1.67" class="f">src/lib/fs.ts</text></symbol><symbol id="9"><text y="1.67" class="i">(!)</text><text x="4.008" y="1.67" class="i">Plugin</text><text x="11.022" y="1.67" class="i">unused-files:</text><text x="25.05" y="1.67" class="i">2</text><text x="27.054" y="1.67" class="i">of</text><text x="30.06" y="1.67" class="i">8</text><text x="32.064" y="1.67" class="i">files</text><text x="38.076" y="1.67" class="i">are</text><text x="42.084" y="1.67" class="i">unused</text></symbol><symbol id="10"><text y="1.67" class="j">created</text><text x="8.016" y="1.67" class="k">./out,</text><text x="15.03" y="1.67" class="k">./out</text><text x="21.042" y="1.67" class="j">in</text><text x="24.048" y="1.67" class="k">277ms</text></symbol><symbol id="a"><path fill="transparent" d="M0 0h80v10H0z"/></symbol><symbol id="b"><path fill="#4d4d4d" d="M0 0h1.102v2.171H0z"/></symbol></defs><path class="a" d="M0 0h80v21.71H0z"/><g style="animation-duration:7.071018s;animation-iteration-count:infinite;animation-name:n;animation-timing-function:steps(1,end)"><svg width="1920"><svg><use xlink:href="#a"/><use xlink:href="#b" x="-.004"/></svg><svg x="80"><use xlink:href="#a"/><use xlink:href="#b" x="-.004"/></svg><svg x="160"><use xlink:href="#a"/><use xlink:href="#b" x="1.996"/><use xlink:href="#1"/></svg><svg x="240"><use xlink:href="#a"/><use xlink:href="#b" x="2.996"/><text y="1.67" class="f">%</text><text x="2.004" y="1.67" class="f">n</text></svg><svg x="320"><use xlink:href="#a"/><use xlink:href="#b" x="3.996"/><text y="1.67" class="f">%</text><text x="2.004" y="1.67" class="f">np</text></svg><svg x="400"><use xlink:href="#a"/><use xlink:href="#b" x="4.996"/><use xlink:href="#2"/></svg><svg x="480"><use xlink:href="#a"/><use xlink:href="#b" x="5.996"/><use xlink:href="#2"/></svg><svg x="560"><use xlink:href="#a"/><use xlink:href="#b" x="6.996"/><text y="1.67" class="f">%</text><text x="2.004" y="1.67" class="f">npx</text><text x="6.012" y="1.67" class="f">r</text></svg><svg x="640"><use xlink:href="#a"/><use xlink:href="#b" x="7.996"/><text y="1.67" class="f">%</text><text x="2.004" y="1.67" class="f">npx</text><text x="6.012" y="1.67" class="f">ro</text></svg><svg x="720"><use xlink:href="#a"/><use xlink:href="#b" x="8.996"/><text y="1.67" class="f">%</text><text x="2.004" y="1.67" class="f">npx</text><text x="6.012" y="1.67" class="f">rol</text></svg><svg x="800"><use xlink:href="#a"/><use xlink:href="#b" x="9.996"/><text y="1.67" class="f">%</text><text x="2.004" y="1.67" class="f">npx</text><text x="6.012" y="1.67" class="f">roll</text></svg><svg x="880"><use xlink:href="#a"/><use xlink:href="#b" x="10.996"/><text y="1.67" class="f">%</text><text x="2.004" y="1.67" class="f">npx</text><text x="6.012" y="1.67" class="f">rollu</text></svg><svg x="960"><use xlink:href="#a"/><use xlink:href="#b" x="11.996"/><use xlink:href="#3"/></svg><svg x="1040"><use xlink:href="#a"/><use xlink:href="#b" x="12.996"/><use xlink:href="#3"/></svg><svg x="1120"><use xlink:href="#a"/><use xlink:href="#b" x="13.996"/><text y="1.67" class="f">%</text><text x="2.004" y="1.67" class="f">npx</text><text x="6.012" y="1.67" class="f">rollup</text><text x="13.026" y="1.67" class="f">-</text></svg><svg x="1200"><use xlink:href="#a"/><use xlink:href="#b" x="14.996"/><use xlink:href="#4"/></svg><svg x="1280"><use xlink:href="#a"/><use xlink:href="#b" x="-.004" y="2.146"/><use xlink:href="#4"/></svg><svg x="1360"><use xlink:href="#a"/><use xlink:href="#b" x="-.004" y="6.488"/><use xlink:href="#4"/><use xlink:href="#5" y="4.342"/></svg><svg x="1440"><use xlink:href="#a"/><use xlink:href="#b" x="-.004" y="13.001"/><use xlink:href="#4"/><use xlink:href="#5" y="4.342"/><use xlink:href="#6" y="6.513"/><use xlink:href="#7" y="8.684"/><use xlink:href="#8" y="10.855"/></svg><svg x="1520"><use xlink:href="#a"/><use xlink:href="#b" x="-.004" y="15.172"/><use xlink:href="#4"/><use xlink:href="#5" y="4.342"/><use xlink:href="#6" y="6.513"/><use xlink:href="#7" y="8.684"/><use xlink:href="#8" y="10.855"/><use xlink:href="#9" y="13.026"/></svg><svg x="1600"><use xlink:href="#a"/><use xlink:href="#b" x="-.004" y="17.343"/><use xlink:href="#4"/><use xlink:href="#5" y="4.342"/><use xlink:href="#6" y="6.513"/><use xlink:href="#7" y="8.684"/><use xlink:href="#8" y="10.855"/><use xlink:href="#9" y="13.026"/><use xlink:href="#10" y="15.197"/></svg><svg x="1680"><use xlink:href="#a"/><use xlink:href="#b" x="-.004" y="17.343"/><use xlink:href="#4"/><use xlink:href="#5" y="4.342"/><use xlink:href="#6" y="6.513"/><use xlink:href="#7" y="8.684"/><use xlink:href="#8" y="10.855"/><use xlink:href="#9" y="13.026"/><use xlink:href="#10" y="15.197"/></svg><svg x="1760"><use xlink:href="#a"/><use xlink:href="#b" x="1.996" y="17.343"/><use xlink:href="#4"/><use xlink:href="#5" y="4.342"/><use xlink:href="#6" y="6.513"/><use xlink:href="#7" y="8.684"/><use xlink:href="#8" y="10.855"/><use xlink:href="#9" y="13.026"/><use xlink:href="#10" y="15.197"/><use xlink:href="#1" y="17.368"/></svg><svg x="1840"><use xlink:href="#a"/><use xlink:href="#b" x="-.004" y="19.514"/><use xlink:href="#4"/><use xlink:href="#5" y="4.342"/><use xlink:href="#6" y="6.513"/><use xlink:href="#7" y="8.684"/><use xlink:href="#8" y="10.855"/><use xlink:href="#9" y="13.026"/><use xlink:href="#10" y="15.197"/><use xlink:href="#1" y="17.368"/></svg></svg></g></g></svg></svg>